<svg width="30" height="30" viewBox="0 0 30 30" fill="none" xmlns="http://www.w3.org/2000/svg">
<circle cx="14.8105" cy="14.8105" r="13.8105" stroke="#D52F4F" strokeWidth="2"/>
<path d="M17.8282 16.0339C18.5831 15.2562 19 14.2203 19 13.1205C19 12.0193 18.5845 10.9848 17.8282 10.2071C17.0732 9.42946 16.0676 9 15 9C13.9324 9 12.9268 9.42801 12.1718 10.2071C11.4169 10.9863 11 12.0193 11 13.1205C11 14.0462 11.2944 14.9254 11.8366 15.6436C11.9394 15.78 12.0507 15.9092 12.1704 16.0339C12.2901 16.1573 12.4169 16.2719 12.5479 16.3778C13.1056 16.8247 13.7634 17.109 14.4648 17.2048V18.75H12.8592C12.7972 18.75 12.7465 18.8022 12.7465 18.8661V19.7366C12.7465 19.8004 12.7972 19.8527 12.8592 19.8527H14.4648V21.8839C14.4648 21.9478 14.5155 22 14.5775 22H15.4225C15.4845 22 15.5352 21.9478 15.5352 21.8839V19.8527H17.1408C17.2028 19.8527 17.2535 19.8004 17.2535 19.7366V18.8661C17.2535 18.8022 17.2028 18.75 17.1408 18.75H15.5352V17.2048C16.4014 17.0858 17.2 16.681 17.8282 16.0339ZM15 16.1384C14.2169 16.1384 13.4831 15.825 12.9282 15.2548C12.3746 14.6846 12.0704 13.9272 12.0704 13.1205C12.0704 12.3138 12.3746 11.5579 12.9282 10.9863C13.4817 10.4146 14.2169 10.1027 15 10.1027C15.7831 10.1027 16.5169 10.4161 17.0718 10.9863C17.6254 11.5565 17.9296 12.3138 17.9296 13.1205C17.9296 13.9272 17.6254 14.6831 17.0718 15.2548C16.5169 15.825 15.7831 16.1384 15 16.1384Z" fill="#D52F4F"/>
</svg>
