<svg width="30" height="30" viewBox="0 0 30 30" fill="none" xmlns="http://www.w3.org/2000/svg">
<circle cx="14.8105" cy="14.8105" r="14.3105" fill="#006A5E" stroke="#006A5E"/>
<path d="M20.6991 9.16846H16.8454C16.7949 9.16846 16.7536 9.20732 16.7536 9.25482V10.0608C16.7536 10.1083 16.7949 10.1472 16.8454 10.1472H19.2983L16.2505 13.0157C15.4859 12.4616 14.553 12.1622 13.5728 12.1622C12.3967 12.1622 11.2896 12.594 10.4592 13.377C9.62877 14.16 9.16846 15.2006 9.16846 16.3074C9.16846 17.4143 9.62724 18.4563 10.4592 19.2379C11.2896 20.0209 12.3967 20.4527 13.5728 20.4527C14.7488 20.4527 15.856 20.0209 16.6863 19.2379C17.5183 18.4563 17.977 17.4143 17.977 16.3074C17.977 15.3848 17.659 14.5097 17.0717 13.7901L20.118 10.923V13.2273C20.118 13.2748 20.1593 13.3137 20.2098 13.3137H21.0662C21.1166 13.3137 21.1579 13.2748 21.1579 13.2273V9.60025C21.1579 9.36276 20.9515 9.16846 20.6991 9.16846ZM13.5728 19.3588C11.785 19.3588 10.3307 17.99 10.3307 16.3074C10.3307 14.6249 11.785 13.2561 13.5728 13.2561C15.3605 13.2561 16.8148 14.6249 16.8148 16.3074C16.8148 17.99 15.3605 19.3588 13.5728 19.3588Z" fill="white"/>
</svg>
