<svg width="16" height="19" viewBox="0 0 16 19" fill="none" xmlns="http://www.w3.org/2000/svg">
<path fill-rule="evenodd" clip-rule="evenodd" d="M0.453313 9.32844C0.557816 9.22367 0.681961 9.14055 0.818637 9.08384C0.955314 9.02712 1.10184 8.99793 1.24981 8.99793C1.39779 8.99793 1.54431 9.02712 1.68099 9.08384C1.81767 9.14055 1.94181 9.22367 2.04631 9.32844L7.99981 15.2842L13.9533 9.32844C14.0579 9.22384 14.1821 9.14087 14.3188 9.08426C14.4554 9.02766 14.6019 8.99852 14.7498 8.99852C14.8977 8.99852 15.0442 9.02766 15.1809 9.08426C15.3175 9.14087 15.4417 9.22384 15.5463 9.32844C15.6509 9.43304 15.7339 9.55721 15.7905 9.69388C15.8471 9.83054 15.8762 9.97702 15.8762 10.1249C15.8762 10.2729 15.8471 10.4193 15.7905 10.556C15.7339 10.6927 15.6509 10.8168 15.5463 10.9214L8.79631 17.6714C8.69181 17.7762 8.56767 17.8593 8.43099 17.916C8.29431 17.9728 8.14779 18.002 7.99981 18.002C7.85184 18.002 7.70531 17.9728 7.56864 17.916C7.43196 17.8593 7.30782 17.7762 7.20331 17.6714L0.453313 10.9214C0.348546 10.8169 0.265424 10.6928 0.208709 10.5561C0.151995 10.4194 0.122802 10.2729 0.122802 10.1249C0.122802 9.97697 0.151995 9.83044 0.208709 9.69377C0.265424 9.55709 0.348545 9.43294 0.453313 9.32844Z" fill="#424242"/>
<path fill-rule="evenodd" clip-rule="evenodd" d="M8 16.875C7.70163 16.875 7.41548 16.7565 7.20451 16.5455C6.99353 16.3345 6.875 16.0484 6.875 15.75L6.875 1.125C6.875 0.826632 6.99353 0.540482 7.2045 0.329504C7.41548 0.118526 7.70163 -3.61332e-08 8 -4.91753e-08C8.29837 -6.22174e-08 8.58452 0.118526 8.7955 0.329504C9.00647 0.540481 9.125 0.826631 9.125 1.125L9.125 15.75C9.125 16.0484 9.00647 16.3345 8.7955 16.5455C8.58452 16.7565 8.29837 16.875 8 16.875Z" fill="#424242"/>
</svg>
