<svg width="63" height="40" viewBox="0 0 63 40" fill="none" xmlns="http://www.w3.org/2000/svg" preserveAspectRatio="none">
<path d="M60.96 27.9424C60.96 31.7024 59.77 34.8924 58.17 35.4524C51.99 37.5924 46.88 38.1624 43.24 38.2624C34.15 38.5024 29.54 35.9624 17.59 34.7724C12.76 34.2924 8.56 34.2224 5.29 34.2824C3.48 34.3224 2 30.9124 2 26.7024V13.6624C2 10.1024 3.06 7.02242 4.56 6.25242C7.17 4.92242 10.58 3.49242 14.58 2.66242C24.8 0.542419 30.75 3.99242 45.83 6.25242C48.71 6.68242 52.79 7.20242 57.78 7.50242C59.55 7.61242 60.96 10.9824 60.96 15.0824V27.9424Z" stroke="#D42F4F" stroke-width="3" stroke-miterlimit="10"/>
</svg>
