<svg width="191" height="50" viewBox="0 0 191 50" fill="none" xmlns="http://www.w3.org/2000/svg">
<path d="M183.742 41.056C168.688 47.2167 152.258 48.4768 136.516 49.457C118.968 50.7171 106.236 49.877 55.2258 45.9566C36.9892 44.5564 20.6451 43.2963 6.53763 42.1761C6.10752 42.1761 3.78494 42.1761 1.89247 39.6558C0.688171 38.1157 0 36.0154 0 33.6352V15.1531C0 10.5325 2.92473 6.75211 6.53763 6.75211C12.215 5.49197 21.0753 3.53174 32 2.13158C62.2795 -1.92888 82.4945 0.591411 120.43 3.25171C134.796 4.23182 156.731 5.63198 184 6.75211C184.516 6.75211 186.839 6.89213 188.645 9.2724C189.849 10.8126 190.537 12.9128 190.537 15.2931C190.537 21.1738 192.43 34.0552 188.559 38.2557C187.527 39.3758 186.236 39.9359 185.032 40.4959C184.688 40.776 184.172 40.916 183.742 41.056Z" fill="#424242"/>
</svg>
