<svg width="48" height="30" viewBox="0 0 48 30" fill="none" xmlns="http://www.w3.org/2000/svg">
<path d="M2.73856 23.0556L2.74729 23.0723L2.80294 23.1149L2.864 23.1736C6.2811 26.461 9.9874 27.1594 13.9095 27.7335L13.9258 27.7358L13.942 27.7386C18.0365 28.4298 20.9418 28.0066 33.8546 25.6736L33.8549 25.6736C38.3564 24.8611 42.395 24.1292 45.8919 23.4772C45.9435 23.3806 46.0157 23.2209 46.0955 22.971L46.0983 22.9625L46.1011 22.954C46.3376 22.2431 46.5 21.1733 46.5 19.8706V8.95196C46.5 7.70308 46.3297 6.62841 46.0947 5.91746C46.0226 5.69922 45.954 5.54481 45.8999 5.44231L45.6632 5.3188C44.2419 4.57723 42.1239 3.47837 39.5254 2.6955L39.5163 2.69275L39.5071 2.68987C33.3209 0.739744 29.0172 1.48986 21.7489 2.75666C20.5762 2.96106 19.3263 3.17891 17.9789 3.40105L17.9724 3.40208C14.4003 3.975 8.9678 4.79078 2.21852 5.45136C2.16647 5.54718 2.09583 5.70161 2.01929 5.93869L2.01934 5.93871L2.01516 5.95128C1.77869 6.66222 1.61624 7.73205 1.61624 9.03469C1.61624 9.82251 1.59248 10.8133 1.56685 11.8818C1.56349 12.0221 1.56009 12.1638 1.55671 12.3065C1.52733 13.5469 1.49871 14.885 1.50004 16.1882C1.50138 17.4946 1.53291 18.7409 1.62027 19.7989C1.71083 20.8955 1.85192 21.6496 2.00998 22.0528C2.09013 22.2573 2.17196 22.3924 2.25092 22.5003C2.33379 22.6135 2.41595 22.7032 2.55869 22.859C2.57394 22.8757 2.58988 22.8931 2.60659 22.9113L2.73856 23.0556ZM46.357 23.4164C46.3574 23.4164 46.3566 23.4163 46.3548 23.4164H46.357ZM45.8007 5.28709C45.8007 5.28718 45.8021 5.28884 45.8049 5.29178C45.8021 5.28847 45.8007 5.28699 45.8007 5.28709Z" stroke="#D52F4F" stroke-width="3"/>
</svg>
