<svg width="82" height="81" viewBox="0 0 82 81" fill="none" xmlns="http://www.w3.org/2000/svg">
<path d="M42.2734 80.8473C32.1504 80.7659 23.4733 79.8083 15.0668 77.0358C11.5222 75.8663 8.12323 74.3769 5.09522 72.1475C3.43171 70.9211 1.95556 69.5131 0.956321 67.6698C-0.654198 64.6986 -0.21703 61.4492 2.16563 58.6483C4.44799 55.9666 7.40597 54.2444 10.557 52.8156C16.0869 50.3099 21.9442 48.9889 27.9245 48.16C28.3143 48.1051 28.8329 48.3455 29.166 48.6067C32.9093 51.5381 37.0463 53.3247 41.8968 53.0711C46.0546 52.8534 49.6012 51.1313 52.8298 48.6104C53.1648 48.3493 53.6795 48.1032 54.0694 48.1581C60.1443 49.0041 66.0906 50.3515 71.6962 52.9272C74.6352 54.2785 77.3907 55.9117 79.5841 58.3549C82.826 61.9677 82.8089 66.2277 79.5103 69.8121C76.6148 72.9594 72.8941 74.8027 68.9842 76.2977C62.7257 78.6899 56.1985 79.8821 49.5501 80.4461C46.6962 80.6902 43.8253 80.7659 42.2734 80.8473Z" fill="#D52F4F"/>
<path d="M62.8127 22.4392C62.0027 32.2348 58.3786 40.6204 50.5966 46.8203C44.5273 51.6537 37.6216 51.5894 31.4426 46.8884C26.5807 43.1905 23.4392 38.2226 21.3101 32.5773C19.8264 28.6447 19.0694 24.5909 19.393 20.3574C20.1141 10.9365 27.7806 2.53761 37.1087 1.00847C48.9974 -0.938912 59.6749 6.27909 62.2468 18.0486C62.561 19.485 62.631 20.9763 62.8127 22.4392Z" fill="#D52F4F"/>
</svg>
